<?xml version="1.0" encoding="UTF-8" standalone="no"?>
<!-- Created with Inkscape (http://www.inkscape.org/) -->
<svg
   xmlns:svg="http://www.w3.org/2000/svg"
   xmlns="http://www.w3.org/2000/svg"
   version="1.0"
   width="500"
   height="87"
   id="svg2"
   xml:space="preserve"><defs
     id="defs6" /><g
     transform="matrix(1.25,0,0,-1.25,-97.00375,1962.7257)"
     id="g12"><path
       d="m 229.11146,1528.4918 55.09445,0 0,13.709 -55.09445,0 0,-13.709 z"
       id="path478"
       style="fill:#163572;fill-opacity:1;fill-rule:nonzero;stroke:none" /><path
       d="m 229.11146,1555.9081 55.09445,0 0,13.709 -55.09445,0 0,-13.709 z"
       id="path480"
       style="fill:#163572;fill-opacity:1;fill-rule:nonzero;stroke:none" /><path
       d="m 229.11146,1501.0738 55.09445,0 0,13.709 -55.09445,0 0,-13.709 z"
       id="path482"
       style="fill:#163572;fill-opacity:1;fill-rule:nonzero;stroke:none" /><path
       d="m 201.56508,1501.0738 13.77319,0 0,68.5433 -13.77319,0 0,-68.5433 z"
       id="path484"
       style="fill:#163572;fill-opacity:1;fill-rule:nonzero;stroke:none" /><path
       d="m 187.79137,1542.1999 -27.54638,0 0,27.418 -13.77488,0 0,-68.545 13.77488,0 0,27.418 27.54638,0 0,13.709 z"
       id="path488"
       style="fill:#163572;fill-opacity:1;fill-rule:nonzero;stroke:none" /><path
       d="m 77.602998,1555.9081 55.094452,0 0,13.709 -55.094452,0 0,-13.709 z"
       id="path490"
       style="fill:#163572;fill-opacity:1;fill-rule:nonzero;stroke:none" /><path
       d="m 132.69746,1528.4911 0,13.709 -41.321258,0 -13.77319,0 0,-13.709 0,-27.418 13.77319,0 0,27.418 41.321258,0 z"
       id="path494"
       style="fill:#163572;fill-opacity:1;fill-rule:nonzero;stroke:none" /><path
       d="m 309.10629,1566.9067 0,2.7202 -8.15713,0 0,-13.7563 3.64266,0 0,5.518 4.31679,0 0,2.7202 -4.31679,0 0,2.7979 4.51447,0 z m 13.64309,-11.0361 -4.39451,13.7563 -4.09884,0 -4.59388,-13.7563 3.56326,0 0.89208,2.9161 4.05829,0 0.73326,-2.9161 3.84034,0 z m -5.26631,5.5569 -2.732,0 1.48511,5.3998 0.0389,0 1.20803,-5.3998 z m 16.78903,-5.2613 -0.15882,3.1933 c -0.35649,-0.2365 -1.3263,-0.7688 -2.65259,-0.7688 -2.33664,0 -3.64266,1.8129 -3.64266,4.1766 0,2.6813 1.10834,4.2188 3.48384,4.2188 1.16917,0 2.25724,-0.5322 2.69314,-0.789 l 0.19768,3.0344 c -0.33622,0.1386 -1.54425,0.6319 -3.34531,0.6319 -4.53474,0 -6.87138,-2.9567 -6.87138,-7.0167 0,-4.8287 2.87054,-7.2127 6.88997,-7.2127 1.0509,0 2.23865,0.1774 3.40613,0.5322 m 13.08723,-0.2956 0,13.7563 -3.72207,0 0,-5.2816 -2.89082,0 0,5.2816 -3.72207,0 0,-13.7563 3.72207,0 0,5.5974 2.89082,0 0,-5.5974 3.72207,0 z m 13.7225,0 0,13.7563 -3.72207,0 0,-5.2816 -2.89081,0 0,5.2816 -3.72377,0 0,-13.7563 3.72377,0 0,5.5974 2.89081,0 0,-5.5974 3.72207,0 z m 15.24648,6.8781 c 0,5.1041 -3.12904,7.1147 -6.13813,7.1147 -3.01077,0 -6.13812,-2.0106 -6.13812,-7.1147 0,-5.1041 3.12735,-7.1147 6.13812,-7.1147 3.00909,0 6.13813,2.0106 6.13813,7.1147 m -3.84203,0 c 0,-2.7201 -0.75185,-4.4739 -2.31637,-4.4739 l -0.0203,0 c -1.56452,0 -2.31637,1.7538 -2.31637,4.4739 0,2.6796 0.75185,4.4739 2.33665,4.4739 1.56452,0 2.31637,-1.7943 2.31637,-4.4739 m 16.69273,-6.5825 -0.15882,3.1933 c -0.3565,-0.2365 -1.3263,-0.7688 -2.65428,-0.7688 -2.33496,0 -3.64267,1.8129 -3.64267,4.1766 0,2.6813 1.10835,4.2188 3.48554,4.2188 1.16748,0 2.25724,-0.5322 2.69314,-0.789 l 0.19768,3.0344 c -0.33791,0.1386 -1.54425,0.6319 -3.347,0.6319 -4.53474,0 -6.8697,-2.9567 -6.8697,-7.0167 0,-4.8287 2.87054,-7.2127 6.88998,-7.2127 1.04921,0 2.23696,0.1774 3.40613,0.5322 m 13.08723,-0.2956 0,13.7563 -3.72207,0 0,-5.2816 -2.89082,0 0,5.2816 -3.72376,0 0,-13.7563 3.72376,0 0,5.5974 2.89082,0 0,-5.5974 3.72207,0 z m 12.29652,4.3151 c 0,2.0511 -1.08975,2.9178 -2.33664,3.4889 l -1.6642,0.7485 c -1.22662,0.5524 -1.58311,0.8684 -1.58311,1.578 0,0.8465 0.67244,1.2993 1.78247,1.2993 1.0678,0 2.19641,-0.3548 2.85027,-0.6894 l 0.15882,2.6999 c -1.12862,0.4528 -2.43633,0.5525 -3.48554,0.5525 -2.92967,0 -5.02809,-1.4783 -5.02809,-4.0802 0,-1.9515 0.69271,-3.173 2.96853,-4.06 l 0.81267,-0.3143 c 1.06949,-0.4139 1.68279,-0.6707 1.68279,-1.578 0,-0.8668 -0.49503,-1.4767 -1.90074,-1.4767 -1.32629,0 -2.67286,0.5711 -3.12904,0.8262 l -0.21795,-3.0142 c 0.6944,-0.1774 2.0207,-0.5322 3.68321,-0.5322 3.22873,0 5.40655,1.5375 5.40655,4.5517 m 12.47393,-4.0195 -0.15882,3.1933 c -0.35649,-0.2365 -1.32629,-0.7688 -2.65259,-0.7688 -2.33664,0 -3.64435,1.8129 -3.64435,4.1766 0,2.6813 1.10834,4.2188 3.48554,4.2188 1.16747,0 2.25723,-0.5322 2.69314,-0.789 l 0.19767,3.0344 c -0.33622,0.1386 -1.54424,0.6319 -3.34699,0.6319 -4.53475,0 -6.8697,-2.9567 -6.8697,-7.0167 0,-4.8287 2.87054,-7.2127 6.88997,-7.2127 1.04921,0 2.23696,0.1774 3.40613,0.5322 m 12.69188,-0.2956 0,13.7563 -3.72376,0 0,-5.2816 -2.89082,0 0,5.2816 -3.72207,0 0,-13.7563 3.72207,0 0,5.5974 2.89082,0 0,-5.5974 3.72376,0 z m 13.91849,5.1632 0,8.5931 -3.64266,0 0,-8.7113 c 0,-1.5172 -0.33622,-2.5614 -1.62366,-2.5614 -1.28743,0 -1.62365,1.0442 -1.62365,2.5614 l 0,8.7113 -3.64267,0 0,-8.5931 c 0,-4.0194 2.35523,-5.3998 5.26632,-5.3998 2.91109,0 5.26632,1.3804 5.26632,5.3998 m 11.56326,-5.1632 0,2.7979 -4.55333,0 0,10.9584 -3.72207,0 0,-13.7563 8.2754,0 z m 11.24732,0 0,2.7201 -5.08892,0 0,2.9551 4.59388,0 0,2.7201 -4.59388,0 0,2.6408 4.83042,0 0,2.7202 -8.47477,0 0,-13.7563 8.73327,0 z"
       id="path506"
       style="fill:#163572;fill-opacity:1;fill-rule:nonzero;stroke:none" /><path
       d="m 309.68058,1528.4528 0,2.7202 -5.08892,0 0,2.955 4.59388,0 0,2.7202 -4.59388,0 0,2.6407 4.83211,0 0,2.7202 -8.47477,0 0,-13.7563 8.73158,0 z m 13.14806,0 -1.24858,4.2965 c -0.55417,1.9109 -1.06948,2.286 -1.86019,2.5428 l 0,0.059 c 1.20634,0.2957 2.65259,1.1219 2.65259,3.1527 0,2.5428 -1.5848,3.7052 -4.37593,3.7052 l -5.52482,0 0,-13.7563 3.72207,0 0,5.3795 0.19937,0 c 0.59303,0 1.20803,-0.1571 1.56452,-1.4766 l 1.02894,-3.9029 3.84203,0 z m -4.17825,9.4986 c 0,-0.887 -0.73327,-1.4783 -1.52566,-1.4783 l -1.08807,0 0,3.0952 1.02893,0 c 1.08976,0 1.5848,-0.6707 1.5848,-1.6169 m 14.96939,1.5375 0,2.7202 -8.15883,0 0,-13.7563 3.64267,0 0,5.5181 4.31679,0 0,2.7201 -4.31679,0 0,2.7979 4.51616,0 z m 13.16664,-5.8728 0,8.593 -3.64436,0 0,-8.7113 c 0,-1.5172 -0.33622,-2.5614 -1.62365,-2.5614 -1.28575,0 -1.62366,1.0442 -1.62366,2.5614 l 0,8.7113 -3.64266,0 0,-8.593 c 0,-4.0195 2.35692,-5.3998 5.26632,-5.3998 2.91109,0 5.26801,1.3803 5.26801,5.3998 m 13.6414,-5.1633 -1.24688,4.2965 c -0.55417,1.9109 -1.06949,2.286 -1.86188,2.5428 l 0,0.059 c 1.20802,0.2957 2.65427,1.1219 2.65427,3.1527 0,2.5428 -1.58479,3.7052 -4.37592,3.7052 l -5.52482,0 0,-13.7563 3.72207,0 0,5.3795 0.19768,0 c 0.59472,0 1.20802,-0.1571 1.56452,-1.4766 l 1.03062,-3.9029 3.84034,0 z m -4.17825,9.4986 c 0,-0.887 -0.73157,-1.4783 -1.52397,-1.4783 l -1.08976,0 0,3.0952 1.03063,0 c 1.08806,0 1.5831,-0.6707 1.5831,-1.6169 m 15.16707,1.4581 0,2.7996 -9.66252,0 0,-2.7996 2.96853,0 0,-10.9567 3.72376,0 0,10.9567 2.97023,0 z m 19.40276,-5.8914 0,8.691 -1.74192,0 0,-8.9478 c 0,-2.1475 -0.94953,-3.5278 -2.59346,-3.5278 -1.64393,0 -2.59345,1.3803 -2.59345,3.5278 l 0,8.9478 -1.74362,0 0,-8.691 c 0,-1.3601 0.0794,-2.1086 0.55417,-3.075 0.57445,-1.1421 1.78248,-2.1288 3.7829,-2.1288 1.99874,0 3.20676,0.9867 3.78121,2.1288 0.47645,0.9664 0.55417,1.7149 0.55417,3.075 m 12.73243,-5.0653 0,13.7563 -1.66421,0 0,-11.3521 -0.0389,0 -5.20718,11.3521 -2.15924,0 0,-13.7563 1.6642,0 0,11.2727 0.0389,0 5.20719,-11.2727 2.15924,0 z m 5.40486,13.7563 -1.74192,0 0,-13.7563 1.74192,0 0,13.7563 z m 12.83042,0 -1.74192,0 -3.38585,-11.2135 -0.0405,0 -3.20676,11.2135 -1.90074,0 4.19683,-13.7563 1.74192,0 4.33707,13.7563 z m 8.84985,-13.7563 0,1.4986 -4.94868,0 0,4.8862 4.47392,0 0,1.4986 -4.47392,0 0,4.3743 4.69187,0 0,1.4986 -6.43549,0 0,-13.7563 6.6923,0 z m 11.28618,0 -1.9396,5.5181 c -0.27709,0.789 -0.67413,1.1826 -1.50539,1.3398 l 0,0.041 c 2.03928,0.4325 2.732,1.8315 2.732,3.2913 0,1.0036 -0.31595,1.9497 -1.02894,2.6204 -0.63358,0.5914 -1.44625,0.9462 -2.91109,0.9462 l -3.54467,0 0,-13.7563 1.74362,0 0,6.2277 0.79239,0 c 1.30602,0 1.80106,-0.4342 2.19642,-1.5764 l 1.58479,-4.6513 1.88047,0 z m -2.53432,10.0714 c 0,-1.203 -0.71299,-2.4245 -2.57318,-2.4245 l -1.34657,0 0,4.6902 1.38542,0 c 1.52398,0 2.53433,-0.7299 2.53433,-2.2657 m 11.66294,-6.3071 c 0,1.5764 -0.71299,2.7793 -2.85196,4.0009 -1.98014,1.1421 -2.33664,1.6946 -2.33664,2.5816 0,1.1624 0.85153,2.0494 2.15924,2.0494 0.85153,0 1.70307,-0.2365 2.35523,-0.6302 l 0,1.6743 c -0.6133,0.2569 -1.5831,0.4545 -2.49377,0.4545 -2.10011,0 -3.84203,-1.1826 -3.84203,-3.45 0,-1.774 0.55417,-2.6205 3.04963,-4.1191 1.86019,-1.1236 2.13897,-1.7335 2.13897,-2.7979 0,-1.1236 -0.89208,-2.1677 -2.4566,-2.1677 -0.81099,0 -1.84161,0.4139 -2.63232,0.887 l 0,-1.7943 c 0.73158,-0.3548 1.78079,-0.5913 2.89082,-0.5913 2.65259,0 4.01943,1.7148 4.01943,3.9028 m 4.75101,9.992 -1.74193,0 0,-13.7563 1.74193,0 0,13.7563 z m 10.63232,-1.4986 0,1.4986 -8.07773,0 0,-1.4986 3.1679,0 0,-12.2577 1.74193,0 0,12.2577 3.1679,0 z m 11.16791,1.4986 -1.92102,0 -3.06822,-6.0908 -3.04963,6.0908 -1.98015,0 4.1377,-7.9814 0,-5.7749 1.74362,0 0,5.7749 4.1377,7.9814 z"
       id="path510"
       style="fill:#163572;fill-opacity:1;fill-rule:nonzero;stroke:none" /><path
       d="m 310.74971,1508.0512 c 0,4.2577 -1.95987,6.8781 -5.02978,6.8781 -3.2659,0 -5.18691,-2.4042 -5.18691,-7.1535 0,-4.2577 1.95987,-6.8781 5.02978,-6.8781 3.26589,0 5.18691,2.4042 5.18691,7.1535 m -1.82133,0 c 0,-4.2374 -1.54425,-5.7343 -3.36558,-5.7343 -2.33664,0 -3.20845,2.6796 -3.20845,5.4589 0,4.2374 1.54425,5.7343 3.36558,5.7343 2.33664,0 3.20845,-2.6796 3.20845,-5.4589 m 11.06822,5.2427 0,1.4969 -6.17867,0 0,-13.7546 1.74361,0 0,6.3848 4.21711,0 0,1.4969 -4.21711,0 0,4.376 4.43506,0 z m 17.62198,-12.2577 -4.51447,13.7546 -1.90074,0 -4.63443,-13.7546 1.74361,0 1.10835,3.5852 5.26632,0 1.11003,-3.5852 1.82133,0 z m -3.38585,5.0838 -4.33707,0 2.17783,6.8579 0.0405,0 2.11869,-6.8579 z m 12.90983,4.7696 c 0,1.2013 -0.39704,2.1677 -1.08976,2.8368 -0.73326,0.691 -1.60338,1.0644 -2.9905,1.0644 l -3.32503,0 0,-13.7546 1.74193,0 0,5.7546 1.16747,0 c 2.93137,0 4.49589,1.4175 4.49589,4.0988 m -1.82302,-0.1588 c 0,-1.5358 -0.77213,-2.5225 -2.89082,-2.5225 l -0.94952,0 0,5.1633 0.99007,0 c 1.78247,0 2.85027,-0.7485 2.85027,-2.6408 m 11.9603,0.1588 c 0,1.2013 -0.39704,2.1677 -1.08976,2.8368 -0.73157,0.691 -1.60338,1.0644 -2.9888,1.0644 l -3.32672,0 0,-13.7546 1.74192,0 0,5.7546 1.16748,0 c 2.93136,0 4.49588,1.4175 4.49588,4.0988 m -1.82133,-0.1588 c 0,-1.5358 -0.77212,-2.5225 -2.89081,-2.5225 l -0.95122,0 0,5.1633 0.99007,0 c 1.78248,0 2.85196,-0.7485 2.85196,-2.6408 m 10.83,-9.6946 0,1.4969 -4.53475,0 0,12.2577 -1.74192,0 0,-13.7546 6.27667,0 z m 4.03971,13.7546 -1.74193,0 0,-13.7563 1.74193,0 0,13.7563 z m 10.35523,-13.7546 0,1.4969 -4.95037,0 0,4.8879 4.47561,0 0,1.4969 -4.47561,0 0,4.376 4.69187,0 0,1.4969 -6.4338,0 0,-13.7546 6.6923,0 z m 12.33539,7.0944 c 0,3.0936 -1.3263,4.827 -2.5546,5.6752 -0.7924,0.5525 -1.84161,0.985 -3.68321,0.985 l -3.00909,0 0,-13.7546 2.15756,0 c 5.1886,0 7.08934,3.1121 7.08934,7.0944 m -1.82134,0 c 0,-3.5278 -1.58479,-5.5975 -4.63442,-5.5975 l -1.04921,0 0,10.7608 1.04921,0 c 3.40612,0 4.63442,-2.286 4.63442,-5.1633 m 16.05746,-3.3318 c 0,1.5781 -0.71299,2.7793 -2.85195,4.0009 -1.98015,1.1438 -2.33665,1.6946 -2.33665,2.5816 0,1.1641 0.85153,2.0494 2.15924,2.0494 0.85154,0 1.70307,-0.2365 2.35523,-0.6302 l 0,1.676 c -0.6133,0.2552 -1.5831,0.4528 -2.49377,0.4528 -2.10011,0 -3.84203,-1.1826 -3.84203,-3.4483 0,-1.774 0.55417,-2.6222 3.04963,-4.1191 1.86188,-1.1236 2.13897,-1.7352 2.13897,-2.7996 0,-1.1219 -0.89208,-2.1677 -2.4566,-2.1677 -0.81098,0 -1.83992,0.4139 -2.63232,0.887 l 0,-1.7926 c 0.73158,-0.3548 1.78248,-0.5913 2.89082,-0.5913 2.65259,0 4.01943,1.7148 4.01943,3.9011 m 11.22704,-3.4872 0,1.7335 c -0.71298,-0.414 -1.58479,-0.6505 -2.47518,-0.6505 -3.01078,0 -4.43506,2.3451 -4.43506,5.8931 0,3.3504 2.05786,5.143 4.3151,5.143 0.97149,0 1.84161,-0.2162 2.59514,-0.6893 l 0,1.6946 c -0.63358,0.3159 -1.62365,0.4933 -2.61373,0.4933 -3.6038,0 -6.11954,-2.6998 -6.11954,-6.9964 0,-3.7254 1.84161,-7.0352 6.21754,-7.0352 0.81267,0 1.68279,0.1571 2.51573,0.4139 m 4.81015,13.4792 -1.74193,0 0,-13.7563 1.74193,0 0,13.7563 z m 10.35523,-13.7546 0,1.4969 -4.94868,0 0,4.8879 4.47392,0 0,1.4969 -4.47392,0 0,4.376 4.69187,0 0,1.4969 -6.43549,0 0,-13.7546 6.6923,0 z m 12.15798,0 0,13.7546 -1.6642,0 0,-11.3504 -0.0389,0 -5.20719,11.3504 -2.15924,0 0,-13.7546 1.66421,0 0,11.2727 0.0389,0 5.20887,-11.2727 2.15755,0 z m 11.87921,0.2754 0,1.7335 c -0.71299,-0.414 -1.58311,-0.6505 -2.47519,-0.6505 -3.00908,0 -4.43506,2.3451 -4.43506,5.8931 0,3.3504 2.05956,5.143 4.31679,5.143 0.96981,0 1.84161,-0.2162 2.59346,-0.6893 l 0,1.6946 c -0.63358,0.3159 -1.62365,0.4933 -2.61373,0.4933 -3.6038,0 -6.11785,-2.6998 -6.11785,-6.9964 0,-3.7254 1.84161,-7.0352 6.21753,-7.0352 0.81099,0 1.68279,0.1571 2.51405,0.4139 m 9.7622,-0.2754 0,1.4969 -4.95037,0 0,4.8879 4.47561,0 0,1.4969 -4.47561,0 0,4.376 4.69356,0 0,1.4969 -6.43548,0 0,-13.7546 6.69229,0 z m 9.52398,3.7626 c 0,1.5781 -0.71299,2.7793 -2.85195,4.0009 -1.98015,1.1438 -2.33665,1.6946 -2.33665,2.5816 0,1.1641 0.85153,2.0494 2.15924,2.0494 0.85154,0 1.70307,-0.2365 2.35523,-0.6302 l 0,1.676 c -0.6133,0.2552 -1.5831,0.4528 -2.49377,0.4528 -2.10011,0 -3.84203,-1.1826 -3.84203,-3.4483 0,-1.774 0.55417,-2.6222 3.04963,-4.1191 1.8602,-1.1236 2.13897,-1.7352 2.13897,-2.7996 0,-1.1219 -0.89208,-2.1677 -2.4566,-2.1677 -0.81098,0 -1.84161,0.4139 -2.63232,0.887 l 0,-1.7926 c 0.73158,-0.3548 1.78079,-0.5913 2.89082,-0.5913 2.65259,0 4.01943,1.7148 4.01943,3.9011"
       id="path514"
       style="fill:#163572;fill-opacity:1;fill-rule:nonzero;stroke:none" /></g></svg>